<svg version="1.1" viewBox="0 0 16 16" xmlns="http://www.w3.org/2000/svg">
  <path d="m2 1v1h1v-1h-1zm1 1v1h1v-1h-1zm0 1h-1v1h1v-1zm4-2v1h2v-1h-2zm6 0v1h-1v1h1v1h1v1h1v-2h-1v-2h-1zm-12 5v3h1v-3h-1zm13 0v3h1v-3h-1zm-13 4v1h1v-1h-1zm1 1v2h1v-2h-1zm1 2v1h1v-1h-1zm1 1v1h1v-1h-1zm10-4v1h1v-1h-1zm0 1h-1v2h1v-2zm-1 2h-1v1h1v-1zm-1 1h-1v1h1v-1z" fill="#e42833" style="paint-order:stroke fill markers"/>
  <path d="m5 1v1h2v-1h-2zm0 1h-1v1h1v-1zm-1 1h-1v1h1v-1zm-1 1h-1v1h1v-1zm6-3v1h2v-1h-2zm2 1v1h1v-1h-1zm1 1v1h1v-1h-1zm1 1v1h1v-1h-1zm-11 2v4h1v-4h-1zm11 0v4h1v-4h-1zm-10 5v2h1v-2h-1zm1 2v1h1v-1h-1zm1 1v1h6v-1h-6zm6 0h1v-1h-1v1zm1-1h1v-2h-1v2z" fill="#9d192b" style="paint-order:stroke fill markers"/>
  <path d="m2 5v1h1v-1h-1zm11 0v1h1v-1h-1zm-10 5v1h1v-1h-1zm9 0v1h1v-1h-1z" fill="#730e27" style="paint-order:stroke fill markers"/>
  <path d="m5 2v1h6v-1h-6zm6 1v1h-2v1h3v4h1v-5h-1v-1h-1zm1 6h-2v-1h-1v2h-2v-2h-1v1h-2v1h1v3h6v-3h1v-1zm-8 0v-4h3v-1h-2v-1h-1v1h-1v5h1zm3-4v3h2v-3h-2z" fill="#c2c2c2" style="paint-order:stroke fill markers"/>
  <path d="m5 3v1h2v1h2v-1h2v-1h-6zm-1 5v1h2v-1h-2zm6 0v1h2v-1h-2zm-5 5v1h1v-1h-1zm2 0v1h1v-1h-1zm2 0v1h1v-1h-1z" fill="#f1f1f1" style="paint-order:stroke fill markers"/>
  <path d="m5 6v2h2v-2h-2zm4 0v2h2v-2h-2zm-2 3v1h2v-1h-2zm-3 2v2h1v-2h-1zm2 1v2h1v-2h-1zm2 0v2h1v-2h-1zm2 0v2h1v-2h-1z" fill="#1e1e1e" style="paint-order:stroke fill markers"/>
  <path d="m4 5v3h1v-2h2v-1h-3zm5 0v1h2v2h1v-3h-3zm-2 3v1h2v-1h-2zm-4 1v1h1v-1h-1zm1 1v1h1v-1h-1zm8-1v1h1v-1h-1zm0 1h-1v1h-1v1h1v1h1v-3zm-6 1v1h1v-1h-1zm2 0v1h1v-1h-1z" fill="#565656" style="paint-order:stroke fill markers"/>
</svg>
